<?xml version="1.0" standalone="no"?>
<!DOCTYPE svg PUBLIC "-//W3C//DTD SVG 20010904//EN"
 "http://www.w3.org/TR/2001/REC-SVG-20010904/DTD/svg10.dtd">
<svg version="1.0" xmlns="http://www.w3.org/2000/svg"
 width="1000.000000pt" height="1000.000000pt" viewBox="0 0 1000.000000 1000.000000"
 preserveAspectRatio="xMidYMid meet">

<g transform="translate(0.000000,1000.000000) scale(0.100000,-0.100000)"
fill="#000000" stroke="none">
<path d="M4760 9600 c0 -5 11 -63 24 -127 15 -72 27 -175 31 -263 4 -80 7
-154 8 -165 0 -11 0 -63 -1 -115 l-2 -95 -197 3 c-109 1 -237 7 -285 13 -48 6
-92 8 -98 4 -16 -10 63 -154 127 -232 30 -36 68 -87 85 -112 17 -25 54 -73 81
-106 l49 -59 -61 -28 c-68 -30 -92 -37 -231 -68 -110 -24 -188 -48 -195 -60
-3 -4 40 -38 96 -75 55 -37 128 -92 161 -121 34 -30 88 -67 120 -83 l60 -29
-37 -41 c-21 -22 -40 -41 -44 -41 -10 0 -261 190 -423 321 -79 63 -188 149
-243 189 -55 41 -125 95 -155 121 -90 77 -340 251 -419 293 -83 44 -171 57
-234 37 -52 -17 -97 -75 -97 -124 0 -112 185 -491 390 -799 62 -94 116 -131
183 -126 32 2 41 -3 69 -36 17 -21 34 -55 38 -76 7 -39 7 -39 -54 -80 -194
-131 -201 -138 -257 -250 -17 -36 -45 -81 -60 -100 -56 -69 -69 -133 -72 -344
-2 -188 -2 -192 24 -241 59 -115 97 -183 119 -213 19 -25 23 -43 21 -81 -4
-77 33 -129 103 -147 14 -3 26 -9 26 -13 0 -7 -163 -162 -390 -372 -80 -74
-182 -171 -227 -216 -75 -77 -81 -86 -76 -116 5 -31 -7 -43 -414 -441 -230
-224 -435 -428 -455 -451 l-38 -43 -66 68 c-96 100 -204 150 -204 94 0 -9 27
-46 61 -82 33 -37 56 -68 50 -70 -5 -2 -27 1 -48 7 -48 14 -173 14 -208 1 -17
-7 -25 -16 -23 -28 2 -13 34 -25 136 -51 73 -19 129 -37 125 -41 -4 -4 -30
-13 -58 -19 -62 -15 -186 -72 -203 -94 -19 -23 -11 -51 16 -55 13 -2 78 10
146 27 67 17 129 31 136 31 8 0 -28 -42 -78 -94 -92 -93 -111 -129 -76 -143
23 -8 75 19 184 97 142 101 131 98 203 52 75 -49 138 -82 153 -82 6 0 17 7 24
15 15 18 -9 60 -86 148 -30 34 -54 64 -54 67 0 8 469 437 619 566 64 55 157
139 208 186 l92 86 58 -23 c100 -40 98 -41 178 57 38 47 71 85 73 83 2 -2 -10
-30 -27 -64 -17 -33 -45 -95 -62 -138 -17 -43 -36 -87 -43 -98 -7 -11 -46 -94
-86 -185 -40 -91 -142 -306 -227 -479 -147 -300 -153 -315 -143 -347 11 -32 6
-44 -79 -224 -50 -104 -91 -192 -91 -195 0 -6 -124 -272 -362 -775 -72 -151
-145 -309 -163 -350 -26 -60 -183 -410 -285 -634 -14 -29 -16 -45 -8 -61 8
-17 5 -31 -11 -61 -29 -55 -41 -69 -78 -88 -52 -26 -183 -207 -183 -252 0 -22
60 -139 108 -213 60 -91 138 -168 190 -188 64 -25 253 -26 277 -2 24 24 10 62
-46 123 -43 47 -52 65 -78 157 -16 57 -35 129 -41 159 -6 30 -17 69 -24 85
-12 27 -11 35 17 87 l29 57 57 -5 56 -6 110 208 c60 115 177 344 260 509 83
165 172 336 197 380 69 122 299 555 364 688 54 108 61 117 87 117 15 0 30 -6
33 -14 5 -14 -69 -176 -304 -661 -79 -165 -177 -374 -217 -465 -40 -91 -123
-277 -185 -415 -83 -186 -109 -254 -102 -265 12 -19 -34 -110 -55 -110 -31 0
-153 -166 -153 -207 0 -19 35 -61 132 -160 73 -75 153 -149 177 -164 42 -27
52 -29 149 -29 114 0 142 9 142 44 0 24 -43 69 -85 88 -13 6 -35 45 -60 106
-22 53 -58 128 -81 168 l-41 72 24 45 c24 44 26 44 68 39 43 -4 43 -4 72 46
15 27 56 108 91 178 302 620 562 1132 780 1536 l106 197 45 -6 c25 -3 61 -1
79 4 32 8 36 15 84 138 67 171 148 398 264 735 l94 275 0 -65 c0 -36 -4 -126
-9 -200 -6 -74 -15 -270 -21 -435 -7 -165 -16 -310 -21 -322 -5 -13 -16 -23
-24 -23 -21 0 -75 -28 -102 -53 -69 -63 46 -229 160 -231 37 -1 42 2 45 22 3
18 -9 36 -48 71 -120 110 53 62 181 -51 15 -13 43 -49 64 -81 40 -64 57 -76
81 -56 12 10 15 24 11 60 -5 40 -12 62 -46 134 -2 6 28 -21 68 -58 52 -48 79
-67 94 -65 31 4 32 36 3 91 l-26 47 40 -20 c42 -21 85 -26 95 -10 10 16 -13
48 -65 89 l-50 39 48 -1 c40 -2 47 1 47 17 0 10 -11 27 -25 38 -36 26 -163 68
-231 75 -31 3 -62 8 -67 12 -12 7 8 423 33 681 9 91 20 212 25 270 5 58 15
146 21 197 l11 92 34 11 34 12 -1 111 c0 62 -4 186 -8 277 -5 91 -8 166 -6
168 1 1 26 -3 56 -9 53 -11 92 -29 252 -120 l78 -44 -6 -55 c-4 -38 -1 -61 7
-72 7 -10 99 -55 204 -102 296 -130 270 -112 288 -203 25 -119 114 -496 143
-600 l25 -92 -83 -92 c-46 -51 -138 -149 -204 -218 -329 -345 -575 -632 -769
-896 -97 -133 -121 -174 -131 -226 -16 -88 27 -154 234 -358 155 -153 249
-236 476 -423 88 -73 203 -171 255 -218 52 -48 166 -144 252 -213 l158 -127
34 17 c35 16 35 16 85 -18 l51 -34 -23 -19 c-12 -10 -85 -56 -162 -103 -388
-234 -435 -269 -435 -322 0 -53 11 -54 445 -41 461 13 571 22 594 44 25 26 18
167 -14 291 -33 130 -62 186 -100 198 -16 6 -61 38 -100 71 -39 34 -91 77
-117 96 -35 26 -46 40 -42 55 3 15 -19 42 -93 111 -108 99 -281 251 -379 330
-35 28 -136 121 -226 206 -90 86 -183 172 -208 193 -63 52 -280 263 -280 272
0 5 40 53 88 109 48 56 143 166 212 246 69 79 219 246 333 371 115 124 217
238 229 252 11 14 23 23 27 21 4 -3 13 -31 21 -63 17 -79 176 -537 256 -741
66 -167 246 -556 268 -579 9 -10 22 1 57 50 81 111 203 192 347 228 70 17 107
20 223 17 123 -3 141 -5 158 -23 11 -11 53 -81 94 -155 64 -117 295 -527 419
-745 22 -38 77 -135 121 -215 44 -80 116 -206 159 -281 82 -144 88 -149 162
-149 15 0 29 -16 52 -58 28 -52 30 -60 19 -87 -15 -36 -35 -218 -35 -322 0
-90 13 -107 123 -158 163 -77 663 -153 761 -115 35 13 43 52 20 89 -46 72
-144 179 -310 337 -191 182 -266 244 -295 244 -12 0 -35 29 -69 85 -41 69 -50
91 -45 114 5 24 -10 55 -93 193 -54 90 -127 216 -162 279 -35 62 -72 126 -82
141 -35 51 -357 654 -358 670 0 4 46 -15 103 -41 274 -129 469 -178 715 -182
102 -1 131 5 102 21 -153 88 -325 224 -480 380 -150 150 -381 441 -498 627
-147 234 -330 613 -503 1043 -279 694 -345 879 -456 1280 l-68 245 3 140 c1
77 7 189 12 249 11 132 -2 321 -30 433 -37 143 -131 311 -228 406 l-49 49 12
41 c11 40 15 43 66 55 30 8 58 17 62 21 5 5 1 25 -7 46 -25 59 -23 62 56 68
89 8 104 20 63 53 -118 96 -114 92 -108 132 3 20 10 41 17 45 45 31 182 106
215 117 23 7 41 16 41 20 0 4 -28 26 -62 48 -47 31 -71 56 -97 99 -19 32 -43
68 -54 80 -18 21 -19 25 -6 49 14 27 78 86 198 186 35 29 66 58 68 65 3 7 -18
18 -54 29 -32 9 -99 39 -149 67 l-92 51 20 45 c11 25 35 87 53 137 18 52 52
119 77 155 71 100 106 179 79 179 -5 0 -34 -12 -65 -26 -40 -18 -91 -29 -178
-39 -68 -8 -140 -17 -160 -21 l-37 -6 9 33 c5 19 16 90 26 158 17 132 14 202
-12 293 -19 64 -84 180 -99 175 -5 -2 -26 -33 -46 -69 -65 -119 -153 -241
-237 -330 l-84 -87 -69 84 c-39 47 -91 99 -117 116 -26 18 -76 60 -112 94 -36
34 -85 75 -110 90 -25 16 -82 58 -127 92 -84 65 -93 70 -93 53z m175 -146 c39
-26 95 -70 125 -100 30 -29 84 -75 120 -101 35 -26 96 -88 135 -136 l70 -89
91 95 c92 97 183 220 246 335 l35 63 26 -43 c75 -129 85 -295 31 -537 -8 -35
-12 -66 -10 -69 3 -2 52 3 110 12 58 9 124 16 148 16 24 0 73 11 111 24 37 12
67 20 67 18 0 -10 -54 -98 -86 -140 -18 -23 -44 -77 -60 -120 -15 -42 -40
-108 -56 -146 -15 -37 -28 -70 -28 -71 0 -9 200 -115 238 -126 23 -7 42 -16
42 -20 0 -5 -42 -42 -92 -82 -51 -41 -112 -97 -136 -126 l-43 -51 43 -60 c24
-32 52 -74 63 -92 11 -18 41 -48 66 -67 l46 -34 -61 -32 c-34 -17 -82 -44
-108 -59 l-47 -27 -15 35 c-8 19 -25 42 -39 51 -21 13 -25 25 -29 87 -4 50 -1
85 9 113 8 22 15 70 16 107 1 58 -4 76 -36 140 -20 40 -43 102 -52 138 -8 36
-23 96 -34 133 -14 46 -18 84 -14 115 8 69 -17 93 -178 175 -115 58 -145 69
-214 77 -94 12 -211 -1 -288 -31 -116 -46 -248 -176 -306 -301 -65 -139 -75
-205 -68 -462 4 -122 11 -245 16 -274 l10 -53 -39 -36 c-47 -41 -65 -95 -57
-166 9 -75 51 -122 121 -136 26 -6 30 -14 52 -89 13 -46 33 -101 44 -122 l20
-40 -33 -14 c-83 -34 -77 -40 -77 76 l0 104 -128 -4 -129 -4 38 113 c40 117
45 144 31 153 -5 3 -76 10 -160 17 -117 10 -152 16 -157 27 -4 10 36 57 120
140 69 69 125 131 125 137 0 7 -19 17 -42 24 -48 14 -126 61 -154 92 -10 12
-64 53 -119 92 -55 39 -102 72 -104 74 -2 2 -2 6 2 9 6 6 170 46 241 59 35 6
210 76 223 89 3 2 -24 40 -59 83 -36 44 -80 101 -98 129 -19 27 -53 72 -76 99
-23 28 -59 81 -80 119 l-38 69 40 -7 c42 -8 524 -25 537 -19 21 11 -1 543 -27
653 -22 93 -21 97 17 66 17 -14 64 -47 102 -72z m575 -638 l45 -16 -49 4
c-165 13 -322 -61 -512 -238 -102 -95 -133 -144 -115 -182 15 -35 51 -30 108
13 290 223 310 236 409 254 102 19 205 5 306 -43 48 -23 90 -48 92 -57 3 -9
14 -47 25 -86 11 -38 24 -89 29 -111 l9 -42 -45 20 c-64 29 -153 28 -219 -1
-101 -45 -153 -136 -153 -266 0 -217 238 -318 438 -185 l32 22 0 -89 c1 -216
-34 -520 -70 -616 -43 -114 -176 -221 -314 -252 -104 -24 -236 -22 -314 4
-202 69 -296 227 -356 596 -46 288 -56 391 -56 582 0 214 10 273 70 399 32 65
54 95 120 158 126 120 229 159 395 151 44 -2 100 -11 125 -19z m70 -46 c82
-15 197 -75 215 -111 15 -28 12 -75 -3 -67 -4 2 -43 22 -87 43 l-80 40 -135 0
c-127 0 -139 -2 -195 -28 -33 -15 -110 -67 -173 -115 -62 -48 -129 -99 -149
-114 -40 -31 -73 -36 -73 -12 0 32 41 83 133 164 201 178 359 236 547 200z
m-2445 -39 c81 -29 349 -210 505 -340 30 -26 82 -66 115 -91 105 -77 329 -252
371 -291 23 -20 100 -80 172 -133 l131 -97 -61 -58 -62 -58 -37 56 c-21 31
-49 67 -63 80 -16 15 -26 35 -26 51 0 68 -64 100 -303 148 -74 16 -143 34
-152 42 -9 7 -23 29 -30 48 -14 33 -418 450 -479 494 l-28 21 13 -24 c7 -13
108 -121 226 -239 117 -118 213 -216 213 -216 0 -1 -20 -4 -45 -7 -120 -17
-261 -126 -285 -220 -6 -23 -12 -46 -13 -50 -1 -4 -25 29 -52 75 -27 46 -59
97 -70 113 -40 55 -222 429 -249 512 -29 89 -28 112 8 152 47 52 113 63 201
32z m2686 -431 c75 -39 126 -150 115 -249 -9 -76 -41 -128 -101 -165 -46 -29
-57 -31 -140 -31 -84 0 -93 2 -135 30 -65 44 -90 94 -90 180 0 39 5 87 11 108
17 64 80 122 159 148 39 13 136 1 181 -21z m-2146 -242 l27 -32 -48 -14 c-48
-14 -119 -56 -143 -86 -19 -23 -24 -21 -61 30 -32 45 -32 46 -13 65 27 28 131
68 175 69 29 0 42 -7 63 -32z m232 -89 c153 -35 212 -54 231 -77 18 -23 15
-45 -5 -38 -9 4 6 -17 33 -46 97 -103 149 -197 178 -325 27 -121 18 -243 -18
-243 -16 0 -18 6 -66 194 -17 66 -42 140 -56 164 -34 58 -90 120 -126 138
l-29 15 7 -94 c8 -113 0 -163 -27 -177 -44 -24 -99 21 -99 80 0 38 -28 126
-37 116 -3 -2 1 -38 8 -79 10 -59 10 -84 1 -115 -31 -103 -146 -53 -166 73
l-6 40 35 -40 c27 -31 35 -36 35 -21 0 10 -34 53 -76 95 -75 75 -76 76 -69 41
17 -96 36 -297 37 -395 1 -131 -16 -189 -54 -183 -23 3 -23 6 -30 188 -3 102
-12 226 -18 277 -11 83 -16 95 -51 138 -41 50 -55 95 -45 149 9 46 92 121 155
140 68 21 105 19 258 -15z m-474 -37 c31 -42 36 -55 39 -121 l3 -73 -44 5
c-24 3 -55 14 -70 25 -23 17 -26 26 -26 79 0 50 5 66 28 96 15 20 30 37 32 37
2 0 19 -21 38 -48z m2555 -270 c5 -63 -21 -133 -53 -146 -15 -5 -16 2 -10 71
3 43 8 100 12 127 l5 48 21 -20 c15 -15 22 -38 25 -80z m-1836 -28 c20 -26 36
-49 34 -51 -1 -1 -24 6 -52 16 -47 18 -49 20 -54 65 -6 44 -5 45 15 32 11 -7
37 -35 57 -62z m673 -75 l21 -129 -21 0 c-75 0 -122 128 -78 213 17 33 44 59
53 51 2 -3 14 -64 25 -135z m-1115 45 c0 -8 -4 -14 -10 -14 -5 0 -10 4 -10 9
0 5 -3 18 -7 28 -6 16 -5 16 10 4 9 -7 17 -20 17 -27z m904 -54 c4 -5 -10 -63
-33 -131 -31 -94 -38 -125 -28 -131 6 -5 65 -8 130 -6 138 4 132 9 122 -118
-8 -97 -12 -95 85 -63 l63 22 20 -29 c11 -16 44 -52 74 -81 l53 -51 -76 -157
-76 -157 48 -71 c27 -40 66 -91 86 -113 l38 -41 -60 -122 c-33 -67 -60 -134
-60 -149 1 -65 143 -610 175 -672 27 -51 33 -34 10 31 -22 61 -99 356 -136
518 l-30 133 61 122 c33 67 60 129 60 138 0 8 -10 23 -21 34 -24 22 -139 183
-139 195 0 9 124 266 138 287 7 11 17 10 51 -4 42 -16 43 -18 37 -53 -3 -20
-11 -207 -17 -416 -13 -420 -4 -695 32 -945 10 -74 21 -152 24 -173 l5 -37
-69 35 c-38 19 -72 39 -75 44 -3 5 -20 62 -36 127 -43 164 -84 429 -116 744
-9 91 -27 239 -40 329 -13 91 -24 205 -24 255 0 95 -7 136 -21 136 -4 0 -9
-23 -11 -50 l-3 -51 -140 131 c-118 110 -143 138 -156 178 -25 73 -77 159
-134 221 -37 40 -55 70 -63 103 -7 26 -12 50 -12 53 0 10 253 -5 264 -15z
m1485 -81 c1 -4 -30 -10 -69 -13 -38 -4 -71 -10 -74 -14 -2 -4 3 -28 12 -55 8
-26 13 -49 11 -51 -2 -2 -20 -7 -40 -11 l-35 -6 10 81 c9 69 15 84 34 94 12 6
29 22 38 34 l15 22 49 -38 c27 -20 49 -40 49 -43z m-1932 -180 c29 -11 53 -23
53 -26 0 -3 -14 -35 -32 -72 -21 -43 -33 -85 -35 -121 l-3 -55 29 83 c30 84
73 162 91 162 15 0 13 -6 -25 -84 -19 -39 -38 -93 -41 -121 -4 -27 -18 -72
-32 -99 -33 -66 -40 -152 -18 -211 10 -24 38 -66 64 -94 26 -27 67 -72 91
-100 24 -29 61 -61 82 -71 42 -22 64 -26 54 -10 -3 6 -2 10 4 10 5 0 16 3 25
6 13 5 16 -2 16 -35 0 -35 -3 -41 -20 -41 -30 0 -77 26 -132 72 -50 41 -66 38
-23 -4 46 -46 103 -80 144 -85 l41 -6 0 -124 c0 -119 -1 -126 -27 -159 l-26
-35 -33 32 c-43 42 -87 44 -120 6 -20 -23 -24 -24 -35 -11 -38 46 -97 33 -140
-30 -28 -41 -35 -44 -42 -16 -3 12 0 20 7 20 7 0 21 10 32 22 19 21 19 21 -1
14 -48 -19 -53 -18 -70 13 -15 31 -13 58 12 129 5 14 4 15 -8 4 -8 -7 -19 -26
-24 -43 l-10 -29 -34 56 c-33 55 -33 56 -14 77 26 29 33 41 43 80 7 26 7 29
-3 13 -35 -55 -69 -97 -74 -93 -3 3 4 18 15 34 26 36 52 126 52 176 0 57 -10
40 -26 -43 -12 -66 -46 -140 -63 -140 -20 0 -19 16 2 39 31 33 45 76 53 159 4
37 13 84 20 106 27 75 11 180 -37 248 -13 18 -34 53 -46 78 -36 74 -81 116
-152 140 -35 12 -47 20 -41 29 14 23 68 1 125 -51 58 -53 67 -53 35 -1 -22 37
-54 60 -108 78 -35 12 -37 15 -37 56 l0 43 60 18 c134 41 283 44 382 7z m245
-56 c41 -45 65 -85 78 -130 13 -43 25 -54 32 -31 6 18 45 -42 79 -122 18 -44
34 -104 41 -158 10 -84 5 -285 -8 -346 l-7 -30 -13 42 c-10 36 -10 48 3 72 8
17 13 38 10 48 -3 12 -7 9 -17 -15 -21 -56 -28 -36 -8 23 12 36 18 76 16 113
l-3 56 -8 -60 c-9 -63 -36 -150 -44 -141 -3 2 0 20 6 38 5 18 12 58 15 88 3
30 10 70 15 89 13 42 0 144 -24 195 -10 20 -32 49 -50 64 -17 15 -43 52 -57
83 -14 31 -42 74 -62 96 -20 22 -36 43 -36 47 0 14 18 5 42 -21z m-27 -40 c26
-27 65 -94 65 -111 0 -4 -29 -6 -64 -4 -49 3 -74 -1 -111 -17 l-48 -21 6 36
c4 20 16 57 29 83 19 38 29 47 58 52 19 4 36 7 37 8 1 0 14 -11 28 -26z m-805
-43 c0 -11 -15 -40 -34 -64 -19 -25 -40 -62 -47 -83 -17 -49 -18 -168 -1 -185
10 -10 12 2 12 59 0 39 7 90 15 113 21 58 55 111 67 104 5 -4 4 -12 -5 -22
-37 -43 -49 -87 -59 -220 -13 -163 -5 -204 54 -305 50 -86 109 -152 160 -178
21 -11 38 -27 38 -35 0 -41 -125 29 -195 110 -47 53 -55 55 -31 7 30 -57 141
-136 218 -155 21 -5 38 -27 79 -99 29 -50 74 -126 99 -167 26 -41 53 -86 60
-99 l12 -24 -88 5 c-148 9 -287 66 -378 155 -31 30 -56 59 -56 65 0 5 10 19
23 30 20 18 20 19 2 13 -49 -16 -112 -17 -147 -2 -46 19 -69 54 -70 104 0 52
24 97 69 128 37 25 37 25 11 25 -38 0 -43 24 -43 205 0 111 5 167 18 215 27
103 79 199 143 263 61 61 74 68 74 37z m2467 -216 c99 -190 123 -344 104 -683
-21 -376 -107 -1048 -167 -1306 -55 -233 -123 -247 -449 -98 -112 51 -236 107
-665 300 l-175 79 1 56 c1 62 27 123 72 172 54 57 58 56 246 -47 180 -98 611
-309 733 -358 92 -37 125 -37 52 1 l-56 29 18 138 c10 76 20 185 24 243 4 58
13 175 20 260 8 85 19 209 25 275 6 66 12 130 15 141 6 27 35 339 35 377 0 50
-18 28 -25 -30 -3 -32 -9 -82 -13 -111 l-7 -53 -52 81 c-29 45 -53 85 -53 89
0 4 25 47 57 95 l56 87 -16 34 c-28 60 -125 210 -148 230 l-22 20 16 -30 c8
-16 44 -79 80 -139 l65 -109 -59 -90 c-33 -49 -59 -93 -59 -98 0 -5 27 -50 60
-100 33 -50 63 -103 67 -117 3 -14 1 -68 -6 -121 -16 -134 -51 -516 -51 -565
0 -52 -12 -39 -43 50 -83 233 -140 718 -146 1239 l-1 50 65 33 c81 42 143 97
186 163 l33 52 66 -70 c43 -46 82 -102 117 -169z m-1187 -123 c0 -14 9 -85 20
-158 20 -135 54 -424 65 -548 10 -128 57 -408 91 -549 18 -77 32 -141 30 -143
-1 -2 -48 22 -104 52 -56 30 -108 55 -117 55 -8 0 -69 27 -135 60 l-120 60 55
57 c68 69 93 128 73 169 -16 34 -51 54 -95 54 -40 0 -41 4 -12 161 11 63 22
148 24 189 2 41 4 82 4 92 1 9 16 25 35 36 50 30 69 73 64 144 -3 46 -10 64
-31 86 -25 26 -28 39 -37 136 -8 87 -16 123 -46 194 -68 162 -64 163 95 12
110 -104 141 -139 141 -159z m-1068 250 c44 -28 95 -87 85 -97 -3 -3 -19 2
-36 10 -71 37 -201 9 -254 -54 l-27 -32 0 39 c0 57 38 127 72 131 14 2 32 10
38 18 20 23 72 16 122 -15z m623 -34 c-5 -17 -2 -24 9 -24 11 0 14 6 10 19
-12 39 62 5 101 -47 36 -46 55 -159 35 -213 -20 -55 -48 -88 -91 -107 -43 -20
-66 -15 -79 17 -6 17 -9 18 -9 6 -1 -9 4 -20 9 -23 23 -14 7 -25 -35 -25 -32
0 -45 4 -45 14 0 8 7 16 15 20 8 3 15 11 15 17 0 9 -4 8 -14 0 -11 -10 -17 -8
-26 6 -9 15 -10 12 -5 -14 8 -39 6 -39 -45 -13 -86 44 -116 168 -66 276 35 76
108 123 119 77 2 -10 3 -6 1 10 -3 27 -3 27 51 27 53 0 55 -1 50 -23z m-586
-76 c9 -6 12 -20 9 -40 -3 -21 -1 -28 5 -22 7 7 16 7 26 -2 10 -7 9 -4 -3 10
-10 12 -16 28 -14 34 7 22 92 -72 106 -117 35 -117 -5 -246 -90 -290 -36 -19
-36 -19 -41 19 l-4 32 -1 -37 c-2 -32 -6 -37 -32 -43 -16 -4 -38 -4 -49 0 -22
7 -37 53 -22 68 16 16 13 31 -3 18 -11 -9 -15 -9 -20 1 -9 18 0 -33 9 -54 18
-43 -67 0 -108 54 -13 18 -30 50 -37 71 -34 106 7 263 49 185 7 -15 10 -16 6
-4 -4 14 -1 17 12 12 16 -5 16 -4 -1 9 -10 8 -24 16 -30 18 -14 5 21 45 56 63
26 13 28 13 42 -13 10 -19 15 -23 16 -11 0 9 -4 20 -10 23 -5 3 -10 10 -10 16
0 11 120 12 139 0z m1734 -303 c7 -428 58 -777 153 -1062 l45 -137 -21 -177
c-11 -97 -22 -178 -24 -179 -2 -2 -102 45 -222 104 l-219 108 -18 140 c-9 77
-22 176 -27 220 -17 145 -23 602 -11 912 6 166 14 308 16 315 4 10 31 12 108
10 56 -2 120 1 142 6 79 19 72 43 78 -260z m-1013 -27 c-8 -29 -18 -45 -35
-51 -14 -5 -27 -21 -31 -35 -5 -22 -11 -25 -53 -25 -43 0 -51 4 -94 48 l-48
48 60 -4 c64 -5 138 15 181 48 14 10 26 17 28 15 2 -1 -2 -22 -8 -44z m164
-63 c8 -41 -9 -100 -35 -124 l-22 -19 6 40 c4 22 9 66 13 98 5 44 10 55 19 47
7 -6 15 -24 19 -42z m-145 -51 c45 -75 53 -234 21 -412 -25 -136 -36 -295 -23
-319 8 -14 11 -4 16 44 7 80 15 88 70 70 37 -13 42 -19 45 -48 4 -41 -22 -84
-92 -150 l-55 -52 26 -19 c13 -11 33 -23 43 -26 17 -5 14 -11 -20 -41 -22 -20
-45 -51 -51 -69 l-12 -32 -71 37 c-43 23 -103 45 -151 54 -43 9 -89 23 -101
31 -33 21 -59 69 -109 200 -28 75 -76 172 -129 260 -46 77 -102 172 -124 210
-74 126 -54 162 37 68 45 -46 74 -92 135 -211 80 -158 111 -197 141 -172 16
13 19 52 6 85 -6 15 -9 10 -15 -24 l-7 -44 -24 23 c-24 22 -24 25 -9 49 28 44
67 81 85 81 23 0 66 -52 94 -114 12 -28 30 -60 38 -71 29 -38 25 -10 -8 63
-29 61 -32 77 -23 97 26 57 77 43 125 -33 40 -63 72 -102 85 -102 5 0 4 9 -2
21 -7 11 -8 28 -5 37 16 38 23 236 14 380 -5 85 -7 157 -4 162 9 15 34 0 54
-33z m-638 -29 c-19 -88 -28 -96 -111 -93 l-72 2 -56 57 -57 57 37 -16 c21 -8
66 -15 102 -15 56 0 70 4 112 33 27 18 51 32 52 31 2 -1 -1 -26 -7 -56z m-400
-421 c109 -108 240 -164 413 -175 l99 -7 47 -127 c52 -140 81 -187 133 -211
l34 -16 6 -122 c9 -167 9 -417 -1 -423 -4 -2 -45 -10 -91 -16 -87 -12 -141 -7
-141 14 0 6 18 70 39 142 52 174 83 320 79 380 l-3 49 -13 -60 c-38 -173 -77
-325 -117 -460 -25 -82 -63 -208 -84 -280 -35 -117 -132 -405 -268 -790 -28
-77 -74 -200 -103 -274 l-53 -134 -86 6 c-99 7 -240 41 -357 86 -91 35 -270
146 -353 218 -53 46 -111 124 -111 150 0 7 65 145 144 306 79 160 181 375 226
477 45 102 87 194 94 205 7 11 20 40 30 65 65 167 143 319 192 375 69 78 251
290 287 333 15 19 27 39 27 45 0 17 -79 -64 -188 -192 -53 -62 -141 -163 -194
-223 -53 -60 -121 -141 -150 -178 -59 -77 -59 -76 -154 -35 -75 33 -152 137
-169 229 -7 37 -6 40 61 108 38 38 132 127 209 198 77 70 207 191 290 269 82
77 150 141 151 141 1 0 35 -33 75 -73z m962 -10 c-6 -38 -25 -46 -31 -13 -3
15 26 61 34 53 2 -2 1 -20 -3 -40z m1692 -282 c104 -387 240 -798 338 -1020
21 -49 95 -232 164 -405 180 -456 375 -843 566 -1125 79 -116 283 -362 402
-484 124 -127 316 -290 395 -335 98 -56 5 -21 -155 58 -182 89 -497 293 -634
408 -125 107 -427 448 -549 619 -167 236 -247 354 -331 486 -103 161 -273 489
-364 701 -53 124 -56 135 -43 160 8 15 19 45 25 67 22 78 90 503 116 725 27
223 32 257 39 249 2 -2 16 -49 31 -104z m-1462 -221 c29 -15 54 -28 56 -30 2
-2 -10 -19 -27 -39 -18 -19 -39 -50 -48 -68 -9 -17 -18 -34 -20 -36 -1 -2 -28
11 -59 29 -54 31 -57 34 -51 64 5 27 73 106 91 106 3 0 29 -12 58 -26z m-1915
-313 l29 -35 -81 -76 c-44 -43 -122 -113 -172 -156 -175 -152 -589 -531 -637
-582 l-47 -52 41 -37 c45 -41 119 -136 119 -153 0 -13 -57 16 -141 70 -34 22
-71 40 -81 40 -17 0 -83 -42 -205 -130 -54 -39 -113 -65 -113 -49 0 6 47 58
105 114 58 57 105 108 105 113 0 15 -67 5 -213 -30 -70 -17 -130 -28 -133 -25
-20 19 75 68 219 112 48 14 87 30 87 34 0 14 -71 40 -185 68 -87 21 -105 28
-85 34 42 12 104 10 190 -7 45 -8 85 -13 88 -10 6 7 -29 59 -86 125 -67 78
-20 65 80 -22 72 -62 96 -96 77 -109 -10 -6 -6 -8 14 -6 21 2 105 79 355 322
180 176 386 379 457 450 l130 131 27 -50 c15 -27 40 -65 56 -84z m2493 -315
c0 -6 6 -45 13 -86 8 -41 28 -154 45 -250 16 -96 35 -197 40 -225 9 -47 8 -52
-17 -78 -21 -22 -28 -24 -34 -13 -15 27 -167 672 -168 713 0 8 120 -53 121
-61z m-1101 -1 c0 -8 -7 -77 -15 -152 -42 -391 -75 -837 -75 -1014 l0 -76 70
-7 c106 -10 280 -70 260 -90 -5 -4 -124 24 -209 50 -43 13 -13 -15 52 -47 106
-54 223 -155 154 -133 -44 13 -123 57 -152 84 -45 41 -107 80 -128 80 -12 0 3
-16 43 -46 95 -70 174 -166 168 -204 -3 -20 -10 -16 -73 42 -38 36 -88 77
-110 91 -22 15 -52 37 -67 49 -51 40 -41 10 15 -45 59 -59 92 -118 102 -184
10 -62 -12 -56 -56 15 -37 60 -119 131 -197 172 -48 25 -109 24 -126 -2 -9
-15 -2 -27 43 -72 29 -29 49 -56 43 -60 -18 -11 -77 17 -119 57 -52 50 -70 89
-55 121 11 25 85 66 120 66 11 0 23 4 26 8 2 4 14 203 26 442 32 663 37 739
56 808 l17 62 94 0 c76 0 93 -3 93 -15z m1208 -39 c106 -53 272 -123 336 -141
70 -21 133 -16 173 13 l30 21 31 -77 c17 -42 34 -84 37 -93 5 -13 -5 -18 -51
-28 -82 -16 -87 -15 -74 10 6 11 9 28 7 37 -3 12 -8 8 -17 -16 -7 -18 -20 -37
-30 -42 -23 -12 -168 -12 -269 -1 -82 10 -94 19 -132 96 l-19 40 4 -39 c3 -21
15 -49 27 -62 13 -13 17 -24 11 -24 -6 0 -21 14 -34 30 -26 35 -38 39 -31 9 4
-15 2 -20 -7 -17 -18 6 -81 318 -65 318 3 0 36 -15 73 -34z m377 -386 c31 -88
37 -80 -57 -79 -128 2 -138 6 -154 59 -8 25 -14 48 -14 52 0 4 48 7 107 5
l106 -2 12 -35z m59 -406 c38 -7 70 -15 70 -16 1 -2 54 -84 118 -183 161 -251
275 -434 340 -545 54 -93 94 -158 277 -452 50 -81 91 -149 91 -150 0 -2 -69
-3 -152 -3 -164 0 -233 -13 -333 -61 -74 -35 -182 -120 -223 -176 l-37 -49
-88 178 c-84 171 -182 406 -227 543 -52 161 -160 638 -160 710 0 9 42 65 92
124 105 120 79 111 232 80z m-304 -449 c15 -77 26 -142 24 -143 -4 -5 -72 210
-89 281 -13 56 -13 63 3 80 16 19 17 17 26 -29 5 -27 21 -112 36 -189z m1509
-597 c137 -155 235 -237 473 -397 186 -125 331 -205 478 -267 67 -28 49 -30
-99 -9 -191 28 -337 75 -559 180 l-118 56 -67 132 c-37 73 -101 196 -143 275
-42 78 -73 142 -71 142 3 0 51 -51 106 -112z m-5319 -1414 c0 -13 -74 -134
-81 -134 -20 0 -68 30 -87 55 l-21 26 41 64 41 63 53 -35 c30 -20 54 -37 54
-39z m471 -13 l56 -28 -23 -39 c-13 -21 -25 -43 -27 -48 -5 -14 -72 2 -101 25
l-26 20 25 50 c14 27 29 49 33 49 4 0 32 -13 63 -29z m3729 -141 l55 -50 -25
-20 c-29 -22 -96 -35 -146 -27 -20 3 -70 32 -120 68 l-85 61 32 32 c17 17 43
48 57 68 l24 37 77 -59 c42 -33 101 -83 131 -110z m-4393 66 c23 -36 104 -82
128 -73 16 7 24 -15 55 -148 38 -164 59 -216 111 -272 27 -28 49 -61 49 -72 0
-20 -6 -21 -92 -21 -135 1 -174 12 -231 68 -27 26 -64 68 -83 94 -50 68 -124
205 -124 231 0 36 134 227 159 227 4 0 16 -15 28 -34z m523 -6 c0 -17 74 -59
117 -66 51 -8 61 -22 134 -182 41 -89 46 -108 33 -112 -19 -7 -8 -18 46 -45
43 -21 91 -65 84 -77 -9 -14 -212 -10 -242 6 -15 8 -91 80 -170 159 -164 166
-157 140 -70 260 47 62 68 81 68 57z m5918 -404 c29 -46 52 -92 52 -101 0 -21
-58 -45 -109 -45 -49 0 -69 18 -115 102 l-37 66 48 16 c26 9 59 25 73 35 13
11 27 18 30 16 4 -2 30 -42 58 -89z"/>
<path d="M5575 8425 c-39 -14 -95 -65 -95 -86 0 -6 18 5 39 24 50 45 109 62
165 48 50 -12 57 -7 17 13 -37 19 -73 20 -126 1z"/>
<path d="M5171 8421 c-19 -5 -11 -9 38 -19 42 -9 72 -22 96 -44 41 -35 55 -33
25 4 -32 42 -113 72 -159 59z"/>
<path d="M5017 8341 c-110 -56 -157 -129 -165 -252 -8 -132 36 -217 139 -274
89 -48 216 -38 312 26 60 40 83 79 97 164 19 120 -9 205 -91 279 -27 24 -70
51 -96 60 -64 22 -150 21 -196 -3z m210 -32 c58 -28 127 -107 143 -164 16 -56
8 -161 -16 -211 -33 -69 -142 -124 -243 -124 -58 0 -138 37 -174 80 -43 51
-60 98 -61 175 -1 59 4 79 29 130 66 130 194 175 322 114z"/>
<path d="M5232 8064 c-17 -18 -15 -41 3 -48 23 -8 53 14 48 35 -6 22 -35 30
-51 13z"/>
<path d="M5481 7762 c-1 -137 -15 -192 -50 -192 -29 0 -43 33 -50 117 -7 81
-24 102 -29 35 -4 -60 15 -146 38 -167 26 -24 69 -15 94 18 28 38 37 223 13
277 -15 34 -15 31 -16 -88z"/>
<path d="M5540 7801 c0 -19 66 -61 116 -72 59 -14 121 0 150 33 19 21 19 21
-1 13 -78 -31 -96 -34 -141 -26 -25 5 -58 17 -73 28 -41 30 -51 35 -51 24z"/>
<path d="M4969 7730 c32 -27 102 -50 155 -50 37 0 122 29 148 50 31 26 7 25
-45 -2 -63 -33 -158 -31 -227 5 -66 34 -74 34 -31 -3z"/>
<path d="M5744 7367 c39 -24 66 -57 66 -80 0 -30 -17 -45 -58 -53 -46 -9 -40
-28 6 -21 73 12 96 85 43 138 -17 16 -40 29 -53 28 -22 0 -22 -1 -4 -12z"/>
<path d="M5262 7349 c-79 -10 -186 -45 -204 -66 -11 -14 -10 -15 7 -10 11 3
48 13 82 22 l61 17 37 -41 c20 -22 45 -43 56 -46 11 -4 30 -29 43 -58 12 -29
30 -58 39 -65 38 -32 77 18 77 97 0 28 7 43 30 63 17 14 30 36 30 47 0 25 6
25 107 6 43 -8 92 -15 108 -15 l30 1 -25 13 c-71 38 -318 56 -478 35z m238
-34 c0 -8 -7 -20 -16 -27 -51 -42 -54 -48 -54 -102 0 -33 -5 -58 -14 -65 -17
-14 -26 -4 -54 61 -11 25 -31 52 -44 58 -27 15 -78 61 -78 71 0 11 47 16 163
17 79 2 97 -1 97 -13z"/>
<path d="M5024 7340 c-27 -11 -64 -57 -64 -81 0 -51 82 -77 140 -44 23 13 21
13 -31 8 -44 -4 -59 -2 -72 12 -25 24 -22 34 23 77 41 39 42 44 4 28z"/>
<path d="M5243 7144 c-3 -8 0 -27 6 -40 14 -31 45 -28 49 4 6 41 -41 72 -55
36z m37 -25 c0 -11 -4 -17 -10 -14 -5 3 -10 13 -10 21 0 8 5 14 10 14 6 0 10
-9 10 -21z"/>
<path d="M5490 7115 c-10 -12 -9 -20 4 -41 22 -32 59 -30 64 4 7 44 -41 70
-68 37z m48 -28 c2 -10 -3 -17 -12 -17 -9 0 -16 2 -16 4 0 2 -3 12 -6 21 -5
13 -2 16 12 13 10 -2 20 -11 22 -21z"/>
<path d="M5628 8072 c-19 -4 -23 -28 -8 -52 7 -12 12 -10 29 9 12 13 21 27 21
31 0 11 -22 17 -42 12z"/>
<path d="M3990 7858 c11 -18 20 -49 20 -68 0 -26 3 -31 10 -20 16 25 11 66
-11 94 -29 37 -43 32 -19 -6z"/>
<path d="M3860 7871 c0 -6 5 -13 11 -17 7 -4 9 -22 6 -45 -4 -29 -2 -36 9 -32
16 6 19 56 4 84 -11 20 -30 26 -30 10z"/>
<path d="M3654 7790 c1 -53 3 -58 14 -43 8 11 11 31 8 52 -9 60 -23 55 -22 -9z"/>
<path d="M4136 7156 c-9 -19 -16 -49 -15 -68 0 -32 1 -31 18 17 10 28 21 58
26 68 14 33 -13 17 -29 -17z"/>
<path d="M3844 7144 c30 -21 48 -47 82 -118 24 -50 43 -82 44 -71 0 10 -16 53
-35 95 -35 73 -80 120 -115 120 -8 0 3 -12 24 -26z"/>
<path d="M4173 6574 c50 -47 48 -79 -3 -78 -19 1 -50 5 -69 9 -25 6 -32 5 -27
-4 10 -15 73 -41 100 -41 26 0 66 39 66 64 0 24 -63 86 -86 86 -15 0 -11 -8
19 -36z"/>
<path d="M4211 6370 c-57 -42 -146 -188 -126 -208 6 -7 5 -8 48 68 85 154 197
196 257 97 17 -28 20 -29 20 -10 0 12 -12 35 -26 52 -23 27 -32 31 -78 31 -43
0 -61 -6 -95 -30z"/>
<path d="M4258 6308 c-20 -11 -41 -32 -47 -45 -19 -41 -12 -49 12 -16 12 18
41 41 64 50 26 11 37 20 30 25 -16 10 -17 10 -59 -14z"/>
<path d="M3464 6978 c-26 -49 -32 -213 -9 -257 19 -38 30 -36 15 3 -15 41 -12
187 5 236 19 53 13 63 -11 18z"/>
<path d="M3595 6347 c21 -33 90 -69 123 -65 25 3 25 4 -13 17 -22 7 -57 26
-77 42 -45 35 -53 37 -33 6z"/>
<path d="M4511 6974 c0 -11 3 -14 6 -6 3 7 2 16 -1 19 -3 4 -6 -2 -5 -13z"/>
<path d="M4320 6835 c0 -8 0 -18 0 -22 0 -7 9 -8 40 -4 6 0 10 9 10 19 0 12
-8 18 -25 20 -16 1 -25 -3 -25 -13z"/>
<path d="M4490 6748 c0 -8 9 -23 20 -33 11 -10 20 -15 20 -11 0 4 -9 19 -20
33 -13 17 -20 20 -20 11z"/>
<path d="M3843 6753 c-15 -5 -18 -43 -4 -43 5 0 16 -3 25 -6 12 -5 16 0 16 19
0 25 -15 37 -37 30z"/>
</g>
</svg>
